<?xml version="1.0" encoding="utf-8"?>
<!-- Generator: Adobe Illustrator 26.0.2, SVG Export Plug-In . SVG Version: 6.00 Build 0)  -->
<svg version="1.1" id="Layer_1" xmlns="http://www.w3.org/2000/svg" xmlns:xlink="http://www.w3.org/1999/xlink" x="0px" y="0px"
	 viewBox="0 0 133.6 55.7" style="enable-background:new 0 0 133.6 55.7;" xml:space="preserve">
<style type="text/css">
	.st0{fill:#303030;}
	.st1{fill:#FE0000;}
</style>
<g id="Group_14840" transform="translate(-19746.226 2386.494)">
	<path id="Path_5802" class="st0" d="M19751.9-2333.1c0.8,0,1.6,0,2.4-0.1c0.2,0,0.3-0.2,0.3-0.5c0-0.3-0.2-0.6-0.5-0.7
		c-0.8-0.1-1.5-0.2-2.3-0.1c-2.4,0-3.9-0.2-4.6-0.5c-0.6-0.4-0.9-1.2-0.9-2.6c-0.2-1,0.3-2,1.2-2.5c1.4-0.4,2.8-0.5,4.2-0.4
		c1.2,0,2.5,0,3.7,0.2c1.2,0.2,1.8,1.3,1.8,3.1h-2.9c0-0.5-0.1-0.8-0.3-0.9c-0.8-0.1-1.5-0.2-2.3-0.1c-0.8,0-1.5,0-2.3,0.1
		c-0.2,0-0.3,0.2-0.3,0.5c0,0.3,0.2,0.6,0.5,0.6c0.7,0.1,1.4,0.2,2.1,0.1c2.4,0,3.9,0.2,4.6,0.6s1,1.2,1,2.6c0,1.3-0.4,2.1-1.2,2.4
		c-1.5,0.4-3,0.5-4.5,0.4c-1.2,0-2.3,0-3.5-0.1c-0.7,0-1.3-0.3-1.7-0.9c-0.4-0.7-0.5-1.5-0.4-2.3h2.9c0,0.5,0.1,0.8,0.3,0.9
		C19750.2-2333.1,19751-2333,19751.9-2333.1"/>
	<path id="Path_5803" class="st0" d="M19775-2335.6c0,2.3-0.3,3.7-0.8,4.1c-0.6,0.5-2.4,0.7-5.4,0.7c-1.4,0-2.9,0-4.3-0.2
		c-0.7-0.1-1.4-0.6-1.6-1.3c-0.2-1.1-0.3-2.2-0.3-3.3c0-2.3,0.3-3.7,0.8-4.1c0.6-0.5,2.4-0.7,5.4-0.7s4.8,0.2,5.4,0.7
		C19774.7-2339.3,19775-2337.9,19775-2335.6 M19765.4-2335.6c0,1.2,0.1,1.9,0.4,2.1c1.9,0.4,3.9,0.4,5.8,0c0.3-0.2,0.4-0.9,0.4-2.1
		s-0.1-1.9-0.4-2.1c-1.9-0.4-3.9-0.4-5.8,0C19765.6-2337.5,19765.4-2336.8,19765.4-2335.6"/>
	<path id="Path_5804" class="st0" d="M19779.9-2330.9v-9.4h10v2.4h-7.1v1.6h6.7v2.4h-6.7v2.9L19779.9-2330.9z"/>
	<path id="Path_5805" class="st0" d="M19794.9-2337.9v-2.4h11.2v2.4h-4.1v7h-2.9v-7H19794.9z"/>
	<path id="Path_5806" class="st0" d="M19830.4-2340.3l-3.6,9.4h-4.4l-1.6-5.8c-0.1,0-0.3,0-0.4,0l-1.6,5.8h-4.4l-3.6-9.4h3.1
		l2.6,6.9h0.3l2.1-6.9h3.5l2.1,6.9h0.3l2.6-6.9H19830.4z"/>
	<path id="Path_5807" class="st0" d="M19837.3-2340.3h5l4.6,9.4h-3.4l-0.9-1.6h-5.7l-0.9,1.6h-3.4L19837.3-2340.3z M19840-2338.2
		h-0.4l-1.6,3.3h3.6L19840-2338.2z"/>
	<path id="Path_5808" class="st0" d="M19851.6-2340.3h8.4c0.8-0.1,1.6,0.1,2.2,0.6c0.5,0.6,0.8,1.4,0.7,2.2c0,0.6-0.1,1.2-0.3,1.8
		c-0.2,0.4-0.6,0.7-1,0.9c0.4,0.1,0.8,0.4,1,0.7c0.2,0.4,0.3,0.8,0.3,1.2v2.1h-2.9v-1.7c0-0.2-0.1-0.4-0.2-0.6
		c-0.2-0.2-0.5-0.3-0.7-0.3h-4.6v2.6h-2.9V-2340.3z M19854.5-2337.9v1.9h4.6c0.2,0,0.5,0,0.7-0.2c0.3-0.5,0.3-1,0-1.5
		c-0.2-0.2-0.4-0.2-0.7-0.2L19854.5-2337.9z"/>
	<path id="Path_5809" class="st0" d="M19868.3-2330.9v-9.4h10.1v2.3h-7.2v1.3h6.9v2.3h-6.9v1.3h7.2v2.3L19868.3-2330.9z"/>
	<path id="Path_5810" class="st1" d="M19864.2-2348.7h-8.1c-0.3,0-0.5-0.3-0.5-0.6c0,0,0,0,0,0c0-9.6,0-19.1,0-28.7
		c0-0.8,0-0.8-0.8-0.8c-4.6,0-9.2,0-13.8,0c-0.4,0-0.5-0.1-0.6-0.5c0-2.2,0-4.4,0-6.6c0-0.3,0.1-0.5,0.4-0.5h38.6
		c0.3,0,0.4,0.2,0.4,0.5c0,2.2,0,4.4,0,6.6c-0.1,0.4-0.2,0.5-0.6,0.5c-4.7,0-9.3,0-14,0c-0.6,0-0.6,0-0.6,0.6c0,9.6,0,19.2,0,28.8
		C19864.7-2349.2,19864.5-2348.9,19864.2-2348.7"/>
	<path id="Path_5811" class="st1" d="M19828.7-2386.5c4.8,0,7.3,2.1,7.4,7c0,1.4,0,2.9,0,4.4c-0.1,0.3-0.4,0.3-0.6,0.3
		c-2.4,0-4.8,0-7.2,0c-0.5,0-0.7-0.2-0.7-0.7c0-1,0-1.9,0-2.9c0-0.5-0.1-0.5-0.5-0.5c-7.3,0-14.7,0-22,0c-0.5,0-0.5,0.1-0.5,0.6
		c0,7,0,14,0,21c0,0.5,0,0.6,0.6,0.6c7.3,0,14.6,0,21.9,0c0.5,0,0.6,0,0.6-0.6c0-1.9,0-3.9,0-5.8c0-0.5,0-0.6-0.6-0.6
		c-3.6,0-7.2,0-10.9,0c-1.1,0-1.2-0.1-1.2-1.2c0-1.8,0-3.5,0-5.3c0-0.7,0.2-0.9,0.9-0.9c6.5,0,13.1,0,19.6,0c0.4,0,0.7,0.1,0.7,0.5
		c-0.1,5.4,0.1,10.8-0.1,16.1c-0.4,4.2-3.1,5.9-7.1,5.9c-8.9,0-16.6,0-25.8,0c-5.3,0-7.5-3.4-7.5-7.6v-22.7
		c-0.1-4.9,2.3-7.5,7.3-7.5C19811.5-2386.4,19820.1-2386.4,19828.7-2386.5"/>
	<path id="Path_5812" class="st1" d="M19792.6-2349.3c0-0.3-0.1-0.6-0.3-0.8c-1-1.9-1.9-3.7-2.9-5.5c-1.8-3.4-3.5-6.8-5.3-10.2
		c-1.4-2.6-2.7-5.2-4.1-7.9c-1.6-3-3.1-6.1-4.7-9.1c-0.6-1.1-1.1-2.1-1.7-3.2c-0.1-0.3-0.4-0.5-0.7-0.5h-7.4
		c-0.4-0.1-0.6,0.2-0.8,0.6c-1.1,2.1-2.2,4.3-3.3,6.4c-2,3.9-3.9,7.7-5.9,11.6c-1.2,2.4-2.5,4.9-3.7,7.3c-1.7,3.3-3.4,6.6-5,9.9
		c-0.2,0.4-0.4,0.9-0.6,1.3v0.2c0,0.2,0.2,0.3,0.4,0.4h7.9c0.3-0.1,0.4-0.3,0.6-0.6c1.1-2.3,2.2-4.5,3.3-6.8
		c0.1-0.4,0.5-0.6,0.9-0.5c6.4,0,12.7,0,19.1,0c0.4,0,0.8,0.2,1,0.6c1.1,2.3,2.2,4.5,3.3,6.7c0.1,0.3,0.3,0.5,0.6,0.6h9
		C19792.6-2348.8,19792.6-2349.1,19792.6-2349.3 M19762.3-2364.4l6.6-13.5l6.5,13.5H19762.3z"/>
</g>
</svg>
