<?xml version="1.0" encoding="utf-8"?>
<!-- Generator: Adobe Illustrator 26.0.2, SVG Export Plug-In . SVG Version: 6.00 Build 0)  -->
<svg version="1.1" id="Layer_1" xmlns="http://www.w3.org/2000/svg" xmlns:xlink="http://www.w3.org/1999/xlink" x="0px" y="0px"
	 viewBox="0 0 74.3 16.1" style="enable-background:new 0 0 74.3 16.1;" xml:space="preserve">
<style type="text/css">
	.st0{fill:#0A2B61;}
	.st1{fill:url(#SVGID_1_);}
	.st2{fill:url(#SVGID_00000103257034112722083470000001740801021925175709_);}
	.st3{fill:url(#SVGID_00000090996827563867253240000003323557057923266961_);}
</style>
<g>
	<g>
		<g>
			<path class="st0" d="M36.5,9.7c-0.1,0-0.1,0-0.2,0.1C36,9.9,35.5,10,35.1,10c0,0,0,0,0,0c-0.9,0.1-2-0.2-2.2-1.2
				c0-0.1,0-0.2,0-0.3h3.9V7.1c0-0.4-0.1-0.7-0.2-1.1c-0.5-1.4-2.4-1.6-3.6-1.1c-1.4,0.5-1.9,2-1.8,3.5c0,0,0,0.1,0,0.1
				c0,0.1,0,0.1,0,0.2c0,0.1,0,0.2,0,0.3c0.2,1.4,1.5,2.5,3,2.4c0.7,0,1.5-0.1,2.2-0.3V9.7z M33.7,6.1c1-0.4,1.7,0.3,1.6,1.3h-2.4
				C33,6.9,33.2,6.3,33.7,6.1z"/>
			<path class="st0" d="M30,5.5c-0.8-1-2.5-1.1-3.4-0.1c0,0,0,0-0.1,0c0-0.7,0-3.2,0-3.2l-1.7,0.4c0,0,0,6.4,0,8.3
				c1.9,0.7,4.8,0.8,5.5-1.6C30.7,8.2,30.7,6.5,30,5.5z M28.5,9.5c-0.3,0.5-1,0.5-1.5,0.5c-0.2,0-0.3-0.1-0.4-0.1c0-0.7,0-2,0-2.6
				c0.1-0.4,0.4-0.7,0.8-0.9c0.4-0.1,1-0.1,1.3,0.3C29,7.3,29,8.8,28.5,9.5z"/>
			<path class="st0" d="M40.5,9.8c-1,0.3-1.2-0.1-1.2-1.1c0-0.6,0-1.9,0-2.6c0.3,0,0.8,0,1.2,0V4.7c-0.4,0-0.9,0-1.2,0
				c0-0.5,0-1.6,0-2.1C38.9,2.7,38,3,37.6,3.1c0,0.4,0,5.6,0,6.4c-0.1,1.9,1.4,2.2,2.9,1.8V9.8z"/>
			<g>
				<path class="st0" d="M62.8,9.4v2.1h-1.7V9.5c0-0.7,0.1-2.3-0.2-2.9c-0.2-0.4-0.7-0.4-1.1-0.3c-0.4,0.1-0.6,0.5-0.7,0.8v4.3h-1.7
					V9.5c0-0.8,0.1-2.3-0.2-3c-0.2-0.4-0.7-0.4-1.1-0.3c-0.4,0.1-0.6,0.4-0.7,0.8v4.4h-1.7V5.1l1.5-0.4l0,0v1c0.7-1.2,3-1.5,3.5,0.1
					c0.5-0.9,1.4-1.2,2.4-1.1c0.8,0.1,1.3,0.6,1.4,1.4C62.8,6.9,62.7,8.5,62.8,9.4z"/>
				<polygon class="st0" points="55.4,4.7 55.4,4.7 53.8,5.1 				"/>
				<path class="st0" d="M45.5,4.7C45.5,4.7,45.5,4.7,45.5,4.7c-0.3,0-0.5,0-0.7,0c-1.4,0-2.7,0.6-3.1,2c-0.2,0.6-0.2,1.2-0.2,1.9
					c0,0,0,0.1,0,0.2c0,0.1,0,0.1,0,0.2c0,0.1,0,0.1,0,0.2c0.1,0.4,0.2,0.9,0.4,1.2c0,0,0,0,0,0c0,0.1,0.1,0.2,0.2,0.2
					c0.6,0.8,1.7,1,2.6,0.6c0,0,0,0,0.1,0c0.3-0.1,0.5-0.3,0.7-0.5h0.1c0,0,0,0,0,0v0.8c0,0.3-0.1,0.5-0.3,0.7
					c-0.2,0.2-0.6,0.4-1.2,0.4c-0.4,0-0.7,0-1-0.1c-0.3-0.1-0.5-0.2-0.7-0.2v1.5c0.1,0,0.3,0.1,0.4,0.1c0.4,0.1,0.8,0.1,1.5,0.1
					c0.9,0,1.6-0.2,2.1-0.7c0.1-0.1,0.2-0.1,0.2-0.2c0.4-0.4,0.5-1,0.5-1.8V5.1C46.7,4.9,46.1,4.8,45.5,4.7z M45.5,9.1
					C45.5,9.1,45.5,9.1,45.5,9.1c-0.1,0.4-0.4,0.7-0.8,0.9c-0.4,0.1-1,0.1-1.3-0.3c-0.4-0.6-0.4-2.2,0.1-2.9
					c0.3-0.5,0.9-0.5,1.4-0.5c0,0,0.1,0,0.1,0c0,0,0.1,0,0.1,0c0.1,0,0.2,0.1,0.3,0.1h0V9.1z"/>
				<path class="st0" d="M72.8,7.5c-0.5-0.2-2-0.5-1.3-1.3c0.6-0.4,1.6,0,2.2,0.3V5.1c-1.3-0.5-3.3-0.7-4,0.7
					c-0.3,0.8-0.1,1.9,0.6,2.4c0.6,0.4,1.4,0.5,1.9,0.9c0.1,0.1,0.2,0.2,0.2,0.4c-0.1,1.2-2.1,0.4-2.7,0.1V11c0.9,0.4,2.1,0.5,3,0.3
					C74.8,10.7,74.7,8,72.8,7.5z"/>
				<path class="st0" d="M68.8,9.7c-0.1,0-0.1,0-0.2,0.1c-0.3,0.1-0.8,0.2-1.2,0.3c0,0,0,0,0,0c-0.9,0.1-2-0.2-2.2-1.2
					c0-0.1,0-0.2,0-0.3h3.9V7.1c0-0.4-0.1-0.7-0.2-1.1c-0.5-1.4-2.4-1.6-3.6-1.1c-1.4,0.5-1.9,2-1.8,3.5c0,0,0,0.1,0,0.1
					c0,0.1,0,0.1,0,0.2c0,0.1,0,0.2,0,0.3c0.2,1.4,1.5,2.5,3,2.4c0.7,0,1.5-0.1,2.2-0.3V9.7z M66,6.1c1-0.4,1.7,0.3,1.6,1.3h-2.4
					C65.3,6.9,65.5,6.3,66,6.1z"/>
				<path class="st0" d="M52.8,7.2c0-0.6,0-1-0.1-1.2c-0.1-0.6-0.5-1-1-1.2c-1-0.4-2.5-0.1-3.5,0.2v1.4c0.7-0.3,2.4-0.7,2.9-0.1
					c0,0,0,0,0,0c0.1,0.2,0.1,0.5,0.1,0.8c-0.3,0-0.8,0-1.3,0.2c-0.2,0-0.3,0.1-0.5,0.1c-1.3,0.5-1.6,1.4-1.6,1.9
					c0,0.9,0.4,1.6,1.1,1.8c0.2,0.1,0.4,0.1,0.7,0.1h0c0,0,0.1,0,0.1,0c0.5,0,1.1-0.2,1.6-0.5v0.5c0.4,0,1.5,0,1.5,0s0-0.8,0-1.9
					C52.8,8.8,52.8,7.9,52.8,7.2z M51.3,9.2c-0.2,0.4-0.5,0.7-1,0.7c-0.4,0.1-1-0.2-1-0.8c0-0.7,1.4-0.7,1.9-0.6
					C51.3,8.5,51.3,9.2,51.3,9.2z"/>
			</g>
		</g>
	</g>
	<g>
		<linearGradient id="SVGID_1_" gradientUnits="userSpaceOnUse" x1="10.3726" y1="11.6865" x2="10.3726" y2="3.3962">
			<stop  offset="0" style="stop-color:#FF8C1A"/>
			<stop  offset="1" style="stop-color:#F7AD1C"/>
		</linearGradient>
		<path class="st1" d="M14.7,7.2c0,2.4-2,4.4-4.4,4.4S6,9.6,6,7.2s2-4.4,4.4-4.4S14.7,4.8,14.7,7.2z M10.4,5.2
			c-1.1,0-1.9,0.9-1.9,1.9s0.9,1.9,1.9,1.9s1.9-0.9,1.9-1.9S11.4,5.2,10.4,5.2z"/>
		
			<linearGradient id="SVGID_00000169536078489915089000000015707834845029575078_" gradientUnits="userSpaceOnUse" x1="2.4897" y1="11.6865" x2="2.4897" y2="3.3962">
			<stop  offset="0" style="stop-color:#FF8C1A"/>
			<stop  offset="1" style="stop-color:#F7AD1C"/>
		</linearGradient>
		<path style="fill:url(#SVGID_00000169536078489915089000000015707834845029575078_);" d="M4.3,11.2L4.3,11.2
			c-0.6,0.3-1.3,0-1.6-0.6L0.1,4.7c-0.3-0.6,0-1.3,0.6-1.6l0,0c0.6-0.3,1.3,0,1.6,0.6l2.6,5.8C5.1,10.2,4.9,10.9,4.3,11.2z"/>
		
			<linearGradient id="SVGID_00000119100794516316539220000009731388276118618025_" gradientUnits="userSpaceOnUse" x1="18.2554" y1="11.6865" x2="18.2554" y2="3.3962">
			<stop  offset="0" style="stop-color:#FF8C1A"/>
			<stop  offset="1" style="stop-color:#F7AD1C"/>
		</linearGradient>
		<path style="fill:url(#SVGID_00000119100794516316539220000009731388276118618025_);" d="M20,11.2L20,11.2c-0.6,0.3-1.3,0-1.6-0.6
			l-2.6-5.8c-0.3-0.6,0-1.3,0.6-1.6l0,0c0.6-0.3,1.3,0,1.6,0.6l2.6,5.8C20.9,10.2,20.6,10.9,20,11.2z"/>
	</g>
</g>
</svg>
