<?xml version="1.0" encoding="utf-8"?>
<!-- Generator: Adobe Illustrator 26.0.2, SVG Export Plug-In . SVG Version: 6.00 Build 0)  -->
<svg version="1.1" id="Layer_1" xmlns="http://www.w3.org/2000/svg" xmlns:xlink="http://www.w3.org/1999/xlink" x="0px" y="0px"
	 viewBox="0 0 233.3 45.3" style="enable-background:new 0 0 233.3 45.3;" xml:space="preserve">
<style type="text/css">
	.st0{fill:url(#Path_5840_00000007423151435003419050000013490261587358886543_);}
	.st1{fill:url(#Path_5841_00000169527188686653754290000000853838474484769936_);}
</style>
<g id="logooneline" transform="translate(-10.16 -9.218)">
	<g id="Group_14843" transform="translate(48.102 12.791)">
		<path id="Path_5828" d="M0,0.5h26.1v5.9H6.8V15h12.8v5.9H6.8v9.7h19.9v5.9H0V0.5z"/>
		<path id="Path_5829" d="M24.8,10.9h6.9l6.1,17.8l5.6-17.8h6.7l-9.3,25.6h-6.2L24.8,10.9z"/>
		<path id="Path_5830" d="M49.1,23.7c0-7.8,5.4-13.3,13.2-13.3c7.7,0,13.1,5.5,13.1,13.3c0,7.7-5.5,13.2-13.3,13.2
			C54.4,37,49.1,31.6,49.1,23.7z M68.6,23.9v-0.2c0-4.9-2.4-7.8-6.3-7.8c-4,0-6.3,2.9-6.3,7.8v0.2c0,4.8,2.3,7.6,6.2,7.6
			C66.1,31.5,68.6,28.7,68.6,23.9L68.6,23.9z"/>
		<path id="Path_5831" d="M78.5,0h6.8v36.5h-6.8V0z"/>
		<path id="Path_5832" d="M89.1,26.2V10.9h6.7v15c0,3.4,1.6,5.4,4.7,5.4c3.5,0,5-3,5-7.4v-13h6.7v25.6h-6.7v-3.6
			c-1.3,2.7-4,4.3-7,4.1C92.7,37,89.1,32.9,89.1,26.2z"/>
		<path id="Path_5833" d="M118.3,29.7V16.3h-3.6v-5.4h3.6V6.1l6.6-3.7v8.5h5v5.4h-5.1v12.7c0,1.2,0.6,1.8,1.8,1.8h3v5.6h-5.2
			C119.5,36.2,118.5,33.9,118.3,29.7z"/>
		<path id="Path_5834" d="M133,0.6h7v6.6h-7V0.6z M133.1,10.9h6.8v25.6h-6.8V10.9z"/>
		<path id="Path_5835" d="M142.9,23.7c0-7.8,5.4-13.3,13.2-13.3c7.7,0,13.1,5.5,13.1,13.3c0,7.7-5.5,13.2-13.3,13.2
			C148.3,37,142.9,31.6,142.9,23.7z M162.4,23.9v-0.2c0-4.9-2.4-7.8-6.3-7.8c-4,0-6.3,2.9-6.3,7.8v0.2c0,4.8,2.3,7.6,6.2,7.6
			C160,31.5,162.4,28.7,162.4,23.9L162.4,23.9z"/>
		<path id="Path_5836" d="M172.2,10.9h6.7v4.2c1.2-3,4.2-4.9,7.5-4.7c5.6,0,8.9,3.7,8.9,10.8v15.3h-6.7v-15c0-3.6-1.4-5.4-4.5-5.4
			c-3.2,0-5.2,2.6-5.2,7.4v13h-6.7L172.2,10.9L172.2,10.9z"/>
	</g>
	<path id="Path_5837" d="M38.5,54c-1.2,0-2.1-0.9-2.1-2.1s0.9-2.1,2.1-2.1c1.2,0,2.1,0.9,2.1,2.1C40.6,53.1,39.7,54,38.5,54
		C38.5,54,38.5,54,38.5,54 M38.5,49.3c-1.5,0-2.6,1.2-2.6,2.6s1.2,2.6,2.6,2.6s2.6-1.2,2.6-2.6c0,0,0,0,0,0
		C41.2,50.5,40,49.3,38.5,49.3"/>
	<g id="Group_14844" transform="translate(10.16 9.218)">
		<path id="Path_5838" d="M24.1,20.8c2.3,0.1,4.6,0,6.9-0.2c-0.2-4.6-1.8-8.9-4.5-12.6c0.1,0.9,0.2,1.8,0.2,2.7
			C26.7,14.3,25.8,17.7,24.1,20.8z"/>
		<path id="Path_5839" d="M23.2,22.3c-3.9,5.8-10.4,9.3-17.3,9.3c-0.5,0-1,0-1.5-0.1c-1.7,2.9-3.1,5.8-4.4,8.9
			c13,6.9,29.8-0.4,31-18C28.4,22.2,25.8,22.1,23.2,22.3z"/>
		
			<radialGradient id="Path_5840_00000163766951614345957030000002352744861083340177_" cx="-4336.1548" cy="1500.3832" r="0.851" fx="-4336.8169" fy="1500.4402" gradientTransform="matrix(-17.3212 -11.5246 10.3553 -15.6301 -90287.5391 -26417.2715)" gradientUnits="userSpaceOnUse">
			<stop  offset="0.17" style="stop-color:#ECECEC"/>
			<stop  offset="0.215" style="stop-color:#D6D6D6"/>
			<stop  offset="0.354" style="stop-color:#969696"/>
			<stop  offset="0.488" style="stop-color:#606060"/>
			<stop  offset="0.611" style="stop-color:#373737"/>
			<stop  offset="0.722" style="stop-color:#191919"/>
			<stop  offset="0.817" style="stop-color:#060606"/>
			<stop  offset="0.885" style="stop-color:#000000"/>
		</radialGradient>
		<path id="Path_5840" style="fill:url(#Path_5840_00000163766951614345957030000002352744861083340177_);" d="M0,2.6
			c3.6,8.1,6.3,17.7,24.1,18.2c1.7-3.1,2.6-6.5,2.6-10.1c0-0.9-0.1-1.8-0.2-2.7C20.2-0.1,9-2.4,0,2.6z"/>
		
			<radialGradient id="Path_5841_00000126282196710929142650000008993800066068435886_" cx="-4457.0781" cy="1568.9866" r="0.8" fx="-4457.2949" fy="1568.9962" gradientTransform="matrix(-3.925 -8.433 22.2289 -10.3598 -52170.6172 -21229.6504)" gradientUnits="userSpaceOnUse">
			<stop  offset="0.116" style="stop-color:#ECECEC"/>
			<stop  offset="0.169" style="stop-color:#E1E1E1"/>
			<stop  offset="0.265" style="stop-color:#C2C2C2"/>
			<stop  offset="0.392" style="stop-color:#909090"/>
			<stop  offset="0.545" style="stop-color:#4C4C4C"/>
			<stop  offset="0.699" style="stop-color:#000000"/>
		</radialGradient>
		<path id="Path_5841" style="fill:url(#Path_5841_00000126282196710929142650000008993800066068435886_);" d="M23.2,22.3
			c-10.7,0.5-15.7,4.4-18.9,9.2c0.5,0,1,0.1,1.5,0.1C12.9,31.6,19.4,28.1,23.2,22.3z"/>
	</g>
	<g id="Group_14845" transform="translate(37.152 51.218)">
		<path id="Path_5842" d="M0.4,0.3H0V0h1.1v0.3H0.7v1.1H0.4V0.3z"/>
		<path id="Path_5843" d="M1.3,0h0.5L2,0.9L2.3,0h0.5v1.4H2.5V0.3L2.1,1.4H1.9L1.5,0.3v1.1H1.3L1.3,0L1.3,0z"/>
	</g>
</g>
</svg>
