<?xml version="1.0" encoding="utf-8"?>
<!-- Generator: Adobe Illustrator 26.0.2, SVG Export Plug-In . SVG Version: 6.00 Build 0)  -->
<svg version="1.1" id="Group_14842" xmlns="http://www.w3.org/2000/svg" xmlns:xlink="http://www.w3.org/1999/xlink" x="0px"
	 y="0px" viewBox="0 0 206 94.6" style="enable-background:new 0 0 206 94.6;" xml:space="preserve">
<style type="text/css">
	.st0{clip-path:url(#SVGID_00000013172462470487460640000013722418323777825979_);}
	.st1{fill:#F19021;}
	.st2{fill:#F68B2A;}
</style>
<g>
	<defs>
		<rect id="SVGID_1_" y="0" width="206" height="94.6"/>
	</defs>
	<clipPath id="SVGID_00000166654429963429549410000009444807741129820325_">
		<use xlink:href="#SVGID_1_"  style="overflow:visible;"/>
	</clipPath>
	<g id="Group_14841" style="clip-path:url(#SVGID_00000166654429963429549410000009444807741129820325_);">
		<path id="Path_5813" class="st1" d="M177.4,36.8c-10.2,0.6-5.6,14,5.7,13.3C194.1,49.4,188.3,36.2,177.4,36.8"/>
		<path id="Path_5814" class="st1" d="M173,28.6c-18.2,0-33,14.8-33,33c0,18.2,14.8,33,33,33c18.2,0,33-14.8,33-33
			C206,43.4,191.2,28.6,173,28.6 M173,91.1c-16.3,0-29.5-13.2-29.5-29.5s13.2-29.5,29.5-29.5s29.5,13.2,29.5,29.5l0,0
			C202.5,77.9,189.3,91.1,173,91.1"/>
		<path id="Path_5815" class="st2" d="M172,5.6c-4.6,3.5-7.1,9.2-6.5,15c0,0-4.9-12.8-11.3-20.6c-0.9,10.1,2.3,23.4,2.3,23.4
			c-2.8-5.1-8-8.4-13.8-8.7c8.1,4.7,11.3,13.1,12,15.4c4.8-3,10.4-4.7,16.1-4.9C170.2,23,167.9,14.2,172,5.6"/>
		<path id="Path_5816" d="M2.9,64.8v6.9H0V53.9h6c1.7-0.1,3.3,0.4,4.6,1.5c1.1,1.1,1.6,2.5,1.5,4c0.1,1.5-0.5,2.9-1.6,4
			c-1.3,1-2.9,1.6-4.6,1.4L2.9,64.8z M9.3,59.4c0.1-0.9-0.2-1.7-0.8-2.3c-0.8-0.6-1.7-0.9-2.7-0.8H2.9v6.2h2.9
			C8.1,62.5,9.3,61.5,9.3,59.4"/>
		<path id="Path_5817" d="M24.1,71.7l-4.4-7.1h-2v7.1h-2.9V53.9H21c1.7-0.1,3.3,0.4,4.6,1.5c1.1,1,1.6,2.5,1.6,3.9
			c0.1,1.2-0.4,2.5-1.2,3.4c-0.9,0.9-2.1,1.6-3.4,1.7l4.7,7.2H24.1z M17.6,62.6h3.2c2.3,0,3.5-1,3.5-3.1c0-0.8-0.3-1.7-0.8-2.3
			c-0.7-0.6-1.7-0.9-2.6-0.8h-3.2L17.6,62.6z"/>
		<path id="Path_5818" d="M40.4,67.9h-7.5l-1.4,3.9h-3.1L35,54.2h3.3l6.5,17.5h-3.1L40.4,67.9z M39.6,65.7l-2.9-8.3l-2.9,8.3H39.6z"
			/>
		<path id="Path_5819" d="M59.3,55.3c1.4,1,2.4,2.5,2.8,4.3h-3c-0.4-0.9-1-1.7-1.9-2.3c-0.9-0.6-2-0.9-3.1-0.9c-1,0-2.1,0.3-3,0.8
			c-0.9,0.5-1.6,1.3-2.1,2.2c-0.5,1-0.8,2.2-0.7,3.4c0,1.2,0.2,2.4,0.8,3.5c0.5,0.9,1.2,1.7,2.1,2.2c1,0.5,2.1,0.8,3.2,0.8
			c1.4,0,2.7-0.5,3.8-1.4c1.1-1,1.8-2.3,1.9-3.8h-6.5v-2.1h8.9v2.7c-0.2,1.3-0.7,2.5-1.4,3.6c-0.7,1.1-1.7,2-2.9,2.6
			c-1.3,0.7-2.7,1-4.1,1c-1.6,0-3.2-0.4-4.6-1.2c-1.3-0.8-2.4-1.9-3.1-3.2c-1.4-3-1.4-6.4,0-9.4c0.7-1.3,1.8-2.4,3.1-3.2
			c1.4-0.8,3-1.2,4.6-1.1C55.9,53.7,57.8,54.3,59.3,55.3"/>
		<path id="Path_5820" d="M82.8,54.2v17.5h-2.9V58.6l-5.1,13.1h-2.5l-5.1-13.1v13.1h-2.9V54.2h3.5l5.8,14l5.7-14H82.8z"/>
		<path id="Path_5821" d="M96.8,67.9h-7.5L88,71.7h-3.1l6.5-17.5h3.3l6.5,17.5h-3.1L96.8,67.9z M96,65.7l-2.9-8.3l-2.9,8.3H96z"/>
		<path id="Path_5822" d="M113.5,53.9v2.3h-5v15.5h-2.9V56.3h-4.9v-2.3H113.5z"/>
		<rect id="Rectangle_7609" x="115.1" y="53.9" width="2.9" height="17.8"/>
		<path id="Path_5823" d="M134.2,55.4c1.5,1.1,2.5,2.7,2.9,4.5h-3c-0.4-1-1.1-1.9-2-2.6c-1-0.7-2.2-1-3.4-0.9c-1,0-2,0.3-2.8,0.8
			c-0.9,0.5-1.5,1.3-2,2.2c-1,2.1-1,4.6,0,6.8c0.4,0.9,1.1,1.7,2,2.2c0.9,0.5,1.8,0.8,2.8,0.8c1.2,0,2.4-0.3,3.4-0.9
			c0.9-0.6,1.6-1.5,2-2.5h3c-0.4,1.8-1.5,3.4-2.9,4.5c-1.6,1.1-3.5,1.7-5.4,1.6c-1.6,0-3.1-0.4-4.5-1.1c-1.3-0.8-2.3-1.9-3-3.2
			c-1.4-3-1.4-6.4,0-9.4c0.7-1.3,1.7-2.4,3-3.2c1.4-0.8,2.9-1.2,4.5-1.2C130.7,53.7,132.6,54.3,134.2,55.4"/>
		<path id="Path_5824" d="M150.7,64.8v6.9h-2.9V53.9h6c1.7-0.1,3.3,0.4,4.6,1.5c1.1,1.1,1.6,2.5,1.5,4c0.1,1.5-0.5,2.9-1.6,4
			c-1.3,1-2.9,1.6-4.6,1.4L150.7,64.8z M157.1,59.4c0.1-0.9-0.2-1.7-0.8-2.3c-0.8-0.6-1.7-0.9-2.7-0.8h-2.9v6.2h2.9
			C155.9,62.5,157.1,61.5,157.1,59.4"/>
		<path id="Path_5825" d="M164.9,69.5h6.1v2.2h-9V53.9h2.9L164.9,69.5z"/>
		<path id="Path_5826" d="M184.2,67.9h-7.5l-1.4,3.9h-3.1l6.5-17.5h3.3l6.5,17.5h-3.1L184.2,67.9z M183.4,65.7l-2.9-8.3l-2.9,8.3
			H183.4z"/>
		<path id="Path_5827" d="M200.2,53.9l-5.9,11.3v6.5h-2.9v-6.5l-5.9-11.3h3.3l4.1,8.2l4.1-8.2L200.2,53.9z"/>
	</g>
</g>
</svg>
