<svg width="525" height="187" viewBox="0 0 525 187" fill="none" xmlns="http://www.w3.org/2000/svg">
<path d="M85.9 170.6C82.6 170.4 79.3 170.2 76 170.1C72.1 169.9 68.3 169.7 64.4 169.5C64.1 169.5 63.9 169.3 63.7 169.1C55.7 162.4 47.7 155.8 39.7 149.1C36.3 146.2 32.8 143.4 29.4 140.5C29.1 140.3 28.9 139.9 28.8 139.6C26.4 132.4 24 125.2 21.7 118C20.8 115.3 20.3 112.4 19.6 109.6C18.3 104.1 17 98.7 15.7 93.2C15.6 92.7 15.6 92.3 15.7 91.8C16.6 88.8 17.4 85.9 18.3 82.9C21.7 70.9 25.1 59 28.5 47.1C28.6 46.7 28.7 46.4 28.8 46C28.9 45.1 29.4 44.7 30 44.3C30.2 44.2 30.4 44 30.5 43.8C36.1 38.8 41.6 33.7 47.2 28.7C49.5 26.7 52 25 54.4 23.2C57.5 20.8 60.6 18.5 63.8 16.2C64 16 64.2 15.9 64.5 15.9C78.7 15.9 92.9 15.8 107.1 15.8C107.3 15.8 107.5 15.9 107.7 16C113.6 20.4 119.6 24.8 125.4 29.4C127.4 30.9 129.2 32.8 131 34.5C134.8 38 138.6 41.5 142.3 45C142.5 45.2 142.7 45.6 142.8 45.9C147.1 60.8 151.3 75.7 155.6 90.6C155.6 90.7 155.6 90.7 155.6 90.8C156.3 91.9 156 93.1 155.7 94.3C153.8 101.8 152.1 109.4 150.1 116.9C149.4 119.6 148.4 122.2 147.6 124.8C146 129.7 144.4 134.6 142.8 139.5C142.6 140 142.4 140.3 142.1 140.6C131 149.8 119.9 159 108.9 168.3C108 169.1 107 169.5 105.9 169.5C102.7 169.6 99.4 169.8 96.2 170C93.1 170.2 89.9 170.4 86.8 170.5C86.6 170.6 86.3 170.6 85.9 170.6ZM107.1 124.9C111.4 131.6 115.6 138.3 119.9 145.1C120 145 120 145 120 144.9C121.3 142.3 122.7 139.7 124 137.1C124.1 136.9 124.1 136.7 124.1 136.6C124.2 135.4 124.2 134.3 124.3 133.1C124.5 129.5 124.7 125.9 124.9 122.3C125 120.6 125.1 118.8 125.2 117C125 117 124.9 117.1 124.7 117.1C120.4 118.5 116.1 119.8 111.7 121.2C111.6 121.2 111.4 121.3 111.3 121.4C110 122.5 108.6 123.6 107.1 124.9ZM46.5 116.9C46.6 118.7 46.7 120.4 46.8 122.2C47.1 126.9 47.3 131.6 47.6 136.3C47.6 136.6 47.7 137 47.9 137.3C49.1 139.7 50.4 142.2 51.6 144.6C51.7 144.8 51.8 144.9 51.9 145.1C56.2 138.4 60.4 131.7 64.7 124.9C63.2 123.7 61.8 122.5 60.4 121.3C60.3 121.2 60.2 121.2 60 121.1C56.8 120.1 53.6 119.1 50.4 118C49.1 117.7 47.8 117.3 46.5 116.9ZM41.6 99.6C41.8 99.4 41.9 99.2 42 99.1C44.5 95.5 47.1 91.8 49.6 88.2C50.2 87.3 50.7 86.4 51 85.3C51.4 83.9 51.8 82.5 52.2 81C45.3 78.4 38.4 75.9 31.4 73.3C31.6 76.3 31.9 79.1 32.1 82C32.1 82.5 32.3 83 32.5 83.3C34.6 87.1 36.7 90.9 38.8 94.7C39.8 96.3 40.7 97.9 41.6 99.6ZM130.1 99.7C130.2 99.5 130.2 99.5 130.3 99.5C133.4 94 136.4 88.5 139.5 83C139.6 82.8 139.6 82.6 139.7 82.4C139.8 81.2 139.9 80.1 140 78.9C140.2 77.1 140.3 75.2 140.5 73.3C133.5 75.9 126.7 78.4 119.7 81C120.3 83 120.8 84.8 121.3 86.7C121.4 86.9 121.5 87.1 121.6 87.2C124.4 91.2 127.1 95.2 129.9 99.1C129.9 99.3 130 99.5 130.1 99.7ZM118.8 145.9C114.5 139.2 110.3 132.5 106.1 125.8C104.6 127.1 103.1 128.3 101.6 129.6C101.5 129.7 101.4 129.8 101.3 130C98.9 134.2 96.4 138.4 94 142.6C93.9 142.7 93.9 142.8 93.8 142.9C93.9 142.9 94 143 94.1 143C99.5 144.6 105 146.2 110.4 147.8C110.6 147.9 110.8 147.9 111 147.8C112.8 147.3 114.7 146.9 116.5 146.4C117.3 146.3 118 146.1 118.8 145.9ZM78 142.9C77.9 142.8 77.9 142.7 77.9 142.6C75.4 138.3 73 134.1 70.5 129.8C70.4 129.7 70.4 129.5 70.3 129.5C68.8 128.2 67.3 127 65.8 125.7C61.6 132.4 57.3 139.1 53.1 145.8C53.2 145.9 53.3 145.9 53.4 145.9C55.6 146.5 57.9 147 60.1 147.6C60.6 147.7 61.1 147.9 61.5 147.7C66.1 146.4 70.7 145 75.3 143.6C76.1 143.4 77 143.2 78 142.9ZM105.3 46.6C105.2 46.4 105.1 46.3 105 46.1C101.5 41.2 98 36.4 94.5 31.5C94.4 31.3 94.2 31.2 94 31.1C91.7 29.9 89.3 28.8 87 27.6C86.9 27.5 86.8 27.5 86.6 27.5C86.6 35.8 86.6 44 86.6 52.3C86.8 52.3 86.9 52.3 87.1 52.3C88.6 52.3 90.2 52.3 91.7 52.3C92 52.3 92.2 52.2 92.5 52.1C94.5 51.2 96.6 50.4 98.6 49.5C100.8 48.5 103 47.6 105.3 46.6ZM85.2 52.2C85.2 43.9 85.2 35.7 85.2 27.4C85 27.5 84.9 27.5 84.8 27.6C82.5 28.7 80.3 29.8 78 31C77.7 31.2 77.4 31.4 77.2 31.7C73.8 36.4 70.4 41.1 67 45.8C66.8 46 66.6 46.2 66.4 46.4C66.7 46.7 66.8 46.7 66.9 46.8C70.8 48.5 74.6 50.1 78.5 51.8C78.9 52 79.3 52.2 79.7 52.3C81.5 52.2 83.3 52.2 85.2 52.2ZM139.9 71.6C139.7 71.4 139.6 71.3 139.4 71.1C137.9 69.1 136.3 67.1 134.8 65.1C134.6 64.8 134.3 64.6 134 64.4C130 62.6 125.9 60.7 121.9 58.9C120.6 58.3 119.4 57.8 118.1 57.2C118.1 57.5 118.1 57.7 118 58C117.8 62.7 117.6 67.5 117.4 72.2C117.4 72.9 117.5 73.6 117.7 74.3C118.1 75.7 118.5 77 118.9 78.4C119 78.7 119.1 78.9 119.1 79.2C126 76.8 132.9 74.2 139.9 71.6ZM52.6 79.4C53.2 77.4 53.7 75.5 54.2 73.6C54.3 73.4 54.2 73.1 54.2 72.9C54 68.7 53.9 64.6 53.7 60.4C53.7 59.4 53.6 58.4 53.6 57.3C53.5 57.3 53.4 57.4 53.3 57.4C48 59.8 42.7 62.2 37.4 64.6C37.2 64.7 37 64.8 36.9 65C35.3 67 33.7 69.1 32.1 71.2C32 71.3 31.9 71.5 31.8 71.7C38.9 74.2 45.7 76.8 52.6 79.4ZM86.6 95.1C86.6 104 86.6 112.7 86.6 121.5C92.2 121.5 97.7 121.5 103.3 121.5C97.8 112.7 92.2 104 86.6 95.1ZM68.4 121.5C74 121.5 79.6 121.5 85.1 121.5C85.1 112.7 85.1 104 85.1 95.1C79.6 104 74 112.7 68.4 121.5ZM86.6 57.4C86.6 68.3 86.6 79.1 86.6 90.1C91.1 82.9 95.6 75.9 100.2 68.7C95.6 65 91.1 61.2 86.6 57.4ZM85.2 90.1C85.2 79.1 85.2 68.3 85.2 57.4C80.7 61.2 76.1 64.9 71.6 68.7C76.1 75.9 80.6 82.9 85.2 90.1ZM104.6 120.8C106.3 114.7 108.1 108.6 109.8 102.5C102.5 99.8 95.2 97.1 87.9 94.3C93.4 103.2 99 111.9 104.6 120.8ZM67.2 120.8C72.8 111.9 78.3 103.2 83.9 94.5V94.4C76.6 97.1 69.4 99.8 62.1 102.5C63.8 108.6 65.5 114.6 67.2 120.8ZM56.9 81C65.9 84.4 74.8 87.7 83.7 91C83.7 91 83.7 90.9 83.8 90.9C79.3 83.9 74.9 76.8 70.4 69.8C65.9 73.5 61.5 77.2 56.9 81ZM101.3 69.7C96.8 76.7 92.4 83.8 87.9 90.8C87.9 90.8 87.9 90.9 88 90.9C96.9 87.6 105.8 84.3 114.8 80.9C110.3 77.2 105.8 73.5 101.3 69.7ZM83.2 92.7C74.3 89.3 65.4 86 56.4 82.6C58.1 88.7 59.8 94.7 61.6 100.8C68.8 98.1 76 95.4 83.2 92.7ZM88.6 92.6C95.8 95.4 103 98.1 110.3 100.8C112 94.8 113.7 88.8 115.5 82.6C106.4 85.9 97.5 89.3 88.6 92.6ZM144.1 77.5C143 79.4 142 81.2 141 83C140.9 83.2 140.9 83.4 140.8 83.7C140.6 86.2 140.4 88.8 140.2 91.3C139.9 94.9 139.6 98.6 139.3 102.2C139.1 104.7 138.9 107.2 138.7 109.8C138.8 109.7 138.9 109.6 139 109.6C142.1 106.3 145.2 102.9 148.2 99.6C148.3 99.5 148.4 99.2 148.4 99C148.4 97.6 148.3 96.2 148.2 94.8C148 90.9 147.8 86.9 147.6 83C147.6 82.8 147.6 82.5 147.5 82.4C146.4 80.7 145.2 79.2 144.1 77.5ZM33.1 109.9C33 108.7 32.9 107.6 32.8 106.6C32.2 99.3 31.6 92.1 31 84.8C30.9 83.7 30.7 82.8 30.2 82C29.4 80.7 28.6 79.2 27.9 77.9C27.8 77.8 27.8 77.7 27.7 77.5C26.6 79.1 25.4 80.7 24.3 82.3C24.2 82.4 24.2 82.7 24.2 82.8C23.9 88.2 23.7 93.5 23.4 98.9C23.4 99.1 23.5 99.5 23.7 99.6C25.7 101.8 27.8 104.1 29.8 106.3C30.9 107.5 32 108.7 33.1 109.9ZM125.2 144C127 143.4 128.7 142.9 130.4 142.4C130.6 142.4 130.7 142.2 130.8 142C133.7 137.9 136.6 133.8 139.5 129.8C139.8 129.4 139.8 129.1 139.7 128.7C139.2 125.6 138.7 122.4 138.2 119.2C137.9 117.6 137.7 116 137.4 114.3C137.3 114.4 137.3 114.5 137.2 114.6C133.3 122.1 129.5 129.6 125.6 137.1C125.5 137.2 125.5 137.4 125.4 137.6C125.4 139.6 125.3 141.7 125.2 144ZM34.3 114.2C34.3 114.4 34.2 114.5 34.2 114.6C33.4 119.3 32.7 124.1 31.9 128.8C31.9 129 32 129.4 32.1 129.6C35 133.7 37.9 137.8 40.9 142C41.1 142.2 41.3 142.4 41.5 142.5C42.4 142.8 43.3 143.1 44.2 143.3C45 143.5 45.8 143.8 46.6 144C46.5 141.9 46.4 140 46.3 138C46.3 137.6 46.2 137.2 46 136.9C42.2 129.5 38.4 122.2 34.7 114.8C34.5 114.6 34.4 114.5 34.3 114.2ZM120 43.3C120 43.4 119.9 43.4 119.9 43.5C120 43.6 120.1 43.6 120.2 43.7C125.1 50.1 130 56.4 135 62.8C135.2 63 135.4 63.2 135.6 63.3C137.2 64 138.8 64.8 140.4 65.5C140.5 65.6 140.7 65.6 140.8 65.7C140.8 65.4 140.8 65.2 140.9 65C141 63.4 141 61.7 141.1 60.1C141.1 59.8 141 59.4 140.9 59.1C138.5 54.8 136.1 50.5 133.7 46.2C133.3 45.5 132.9 45.3 132.3 45.2C128.9 44.7 125.6 44.2 122.2 43.7C121.4 43.5 120.7 43.4 120 43.3ZM31 65.6C31.2 65.5 31.4 65.5 31.5 65.4C33.1 64.7 34.6 64 36.2 63.3C36.5 63.2 36.7 63 36.9 62.7C41.8 56.4 46.7 50.1 51.5 43.8C51.6 43.7 51.7 43.6 51.8 43.4C51.6 43.4 51.5 43.4 51.4 43.4C47.3 44 43.2 44.6 39 45.3C38.8 45.3 38.6 45.5 38.5 45.7C36 50.2 33.4 54.7 30.9 59.2C30.8 59.3 30.8 59.5 30.8 59.8C30.8 60.9 30.9 62 30.9 63.1C30.9 63.9 31 64.7 31 65.6ZM91.5 24.6C91.5 24.7 91.4 24.8 91.4 24.9C92.5 26.4 93.7 27.9 94.8 29.3C95 29.6 95.3 29.8 95.5 29.9C102.4 33.3 109.2 36.7 116.1 40.1C116.2 40.2 116.4 40.2 116.6 40.3C116.5 40.1 116.5 40 116.5 39.9C114.7 35.6 113 31.4 111.2 27.1C111.1 26.9 110.8 26.7 110.6 26.6C106.1 25.2 101.5 23.8 97 22.5C96.8 22.5 96.6 22.4 96.5 22.5C94.7 23.2 93.1 23.9 91.5 24.6ZM55.3 40.4C55.5 40.3 55.6 40.3 55.7 40.2C62.6 36.7 69.6 33.3 76.5 29.8C76.7 29.7 76.9 29.6 77 29.4C78 28 79.1 26.5 80.1 25C80.2 24.9 80.3 24.8 80.4 24.6C78.7 23.9 77.1 23.2 75.5 22.5C75.4 22.4 75.2 22.5 75 22.5C70.4 23.9 65.9 25.3 61.3 26.6C61 26.7 60.9 26.9 60.7 27.2C59 31.4 57.2 35.5 55.5 39.7C55.4 39.9 55.4 40.1 55.3 40.4ZM88 155.5C88.2 155.6 88.2 155.7 88.3 155.7C91.9 158 95.6 160.2 99.2 162.5C99.4 162.6 99.7 162.6 99.9 162.5C104.3 160.6 108.7 158.6 113.1 156.6C113.3 156.5 113.5 156.3 113.7 156C114.5 154.6 115.3 153.3 116.1 151.9C116.2 151.7 116.3 151.6 116.4 151.4C114.8 150.9 113.4 150.6 111.9 150C111 149.7 110.2 149.7 109.4 150C103.7 151.5 98.1 152.9 92.4 154.3C90.9 154.8 89.5 155.1 88 155.5ZM83.7 155.6C83.5 155.5 83.4 155.5 83.2 155.5C76.2 153.7 69.2 152 62.3 150.2C61.5 150 60.7 150 59.9 150.3C58.8 150.7 57.6 151 56.5 151.3C56.1 151.4 55.8 151.5 55.3 151.7C56.2 153.3 57.1 154.8 58 156.4C58.1 156.6 58.4 156.9 58.6 156.9C63 158.9 67.4 160.8 71.7 162.7C72 162.8 72.2 162.8 72.5 162.6C74.8 161.2 77.1 159.7 79.4 158.3C80.8 157.4 82.2 156.5 83.7 155.6ZM61.1 55C61 55.3 61 55.4 60.9 55.6C59.4 60.9 57.9 66.2 56.4 71.4C55.9 73 55.6 74.6 55.8 76.4C55.9 77.4 55.9 78.3 55.9 79.3C55.9 79.4 55.9 79.5 55.9 79.7C60.5 75.9 65 72.1 69.5 68.3C66.7 63.9 63.9 59.5 61.1 55ZM115.9 79.7C116 77.7 116 75.8 116.1 74C116.1 73.8 116 73.7 116 73.5C114.3 67.5 112.6 61.5 110.9 55.5C110.9 55.3 110.8 55.2 110.7 55C107.9 59.5 105 63.9 102.2 68.4C106.7 72.1 111.3 75.9 115.9 79.7ZM111.5 101.2C116.1 102.9 120.7 104.6 125.3 106.3C125.2 106 125.2 105.8 125.1 105.6C123.7 100.8 122.3 96 121 91.1C120.3 88.6 119.5 86.4 118 84.7C117.5 84.2 117.1 83.5 116.7 82.8C115 89 113.2 95.1 111.5 101.2ZM46.5 106.4C51.1 104.7 55.7 103 60.3 101.3C58.5 95.1 56.8 89 55.1 82.9C54 84.5 53 86 51.9 87.5C51.8 87.6 51.8 87.8 51.7 88C50.7 91.7 49.6 95.3 48.6 99C47.9 101.4 47.2 103.8 46.5 106.4ZM124.7 108.1C120.1 106.4 115.6 104.7 111 103C109.3 109.1 107.6 115.1 105.8 121.2C106 121.2 106.1 121.1 106.3 121.1C107.4 120.8 108.5 120.4 109.6 120.1C110.5 119.9 111.2 119.4 112 118.8C116.1 115.4 120.2 112 124.3 108.6C124.4 108.4 124.5 108.2 124.7 108.1ZM47.1 108.1C47.3 108.3 47.5 108.4 47.6 108.5C51.7 111.9 55.8 115.3 59.9 118.7C60.7 119.3 61.4 119.8 62.3 120C62.9 120.2 63.5 120.4 64.1 120.6C64.7 120.8 65.3 121 66 121.2C65.9 120.9 65.9 120.8 65.9 120.6C64.3 114.9 62.7 109.2 61.1 103.5C61 103.1 60.9 103 60.6 103.1C57.7 104.2 54.9 105.2 52 106.3C50.2 106.9 48.7 107.5 47.1 108.1ZM86.6 123.4C86.6 128.9 86.6 134.3 86.6 139.8C86.8 139.7 86.9 139.6 87 139.5C90.8 136.3 94.7 133 98.5 129.9C100 128.7 101.3 127.3 102.3 125.3C102.6 124.7 103 124.1 103.4 123.4C97.8 123.4 92.2 123.4 86.6 123.4ZM68.3 123.4C69.2 124.9 70 126.3 70.8 127.7C70.9 127.9 71.1 128.1 71.3 128.3C75.8 132.1 80.3 135.8 84.9 139.6C85 139.7 85.1 139.8 85.2 139.8C85.2 134.3 85.2 128.9 85.2 123.4C79.6 123.4 74 123.4 68.3 123.4ZM101 67.4C103.8 63 106.6 58.6 109.4 54.1C109.1 54.1 108.9 54.1 108.8 54.1C103.7 54.1 98.5 54.1 93.4 54.1C92.5 54.1 91.7 54.2 90.8 54.6C89.7 55.1 88.6 55.6 87.4 56.1C92 59.9 96.5 63.6 101 67.4ZM62.3 54.1C65.2 58.6 67.9 63 70.7 67.4C75.2 63.6 79.7 59.9 84.3 56.1C84.1 56 84 56 83.9 55.9C82.6 55.3 81.3 54.8 80 54.2C79.7 54.1 79.5 54 79.2 54C73.8 54 68.3 54 62.8 54C62.7 54.1 62.6 54.1 62.3 54.1ZM137.3 110C138 102 138.6 94.2 139.3 86.4H139.2C136.5 91.3 133.8 96.1 131.1 101C133.1 103.9 135.2 106.9 137.3 110ZM34.5 110C36.6 106.9 38.7 104 40.8 101C38.1 96.1 35.4 91.2 32.7 86.4C32.7 86.4 32.6 86.4 32.6 86.5C33.1 94.2 33.8 102 34.5 110ZM35.5 113.4C39 120.2 42.5 126.9 45.9 133.6C45.9 133.6 46 133.6 46 133.5C45.7 127.8 45.4 122.1 45.1 116.4C41.9 115.4 38.8 114.4 35.5 113.4ZM125.8 133.5C129.3 126.8 132.8 120.1 136.3 113.3C133 114.3 129.9 115.3 126.7 116.3C126.4 122.1 126.1 127.8 125.8 133.5ZM53.2 44.1C48.7 50 44.2 55.8 39.7 61.6C39.8 61.7 39.9 61.7 40 61.6C44.4 59.6 48.9 57.6 53.3 55.6C53.6 55.5 53.6 55.3 53.6 55C53.5 52.3 53.4 49.5 53.3 46.8C53.3 45.9 53.2 45 53.2 44.1ZM132 61.7C127.6 55.8 123.2 50 118.7 44.2C118.7 44.5 118.7 44.7 118.6 44.8C118.5 48.2 118.4 51.5 118.2 54.9C118.2 55.4 118.3 55.6 118.6 55.7C121.9 57.2 125.2 58.7 128.5 60.2C129.6 60.6 130.8 61.1 132 61.7ZM74.4 32.9C68.2 35.8 62.1 38.9 55.8 42C58.8 43.3 61.7 44.5 64.6 45.8C64.9 45.9 65.1 45.9 65.4 45.6C67.4 42.7 69.5 39.9 71.5 37C72.5 35.6 73.5 34.3 74.4 32.9ZM115.8 42.1C109.7 38.9 103.5 35.9 97.4 32.8C97.4 32.9 97.3 32.9 97.3 33C97.5 33.3 97.8 33.6 98 33.9C100.8 37.8 103.6 41.7 106.4 45.6C106.5 45.8 106.8 45.9 106.9 45.8C109.9 44.6 112.9 43.3 115.8 42.1ZM87.4 153.9C94.1 152.2 100.6 150.5 107.1 148.9C107 148.8 106.9 148.7 106.8 148.7C102.2 147.3 97.7 146 93.1 144.6C92.8 144.5 92.7 144.6 92.5 144.9C91.2 147.1 89.9 149.4 88.7 151.6C88.4 152.3 87.9 153 87.4 153.9ZM64.6 148.7V148.8C71.1 150.5 77.7 152.1 84.3 153.8C84.2 153.6 84.2 153.5 84.2 153.5C82.5 150.6 80.9 147.7 79.2 144.8C79 144.4 78.8 144.5 78.5 144.5C75.3 145.4 72.2 146.4 69 147.3C67.5 147.9 66.1 148.3 64.6 148.7ZM59.2 27.3C59.1 27.3 59 27.3 58.9 27.3C55.9 28.2 52.8 29.1 49.8 30.1C49.1 30.3 48.5 30.9 47.8 31.3C49.8 34.4 51.7 37.4 53.6 40.5C55.5 36.1 57.3 31.8 59.2 27.3ZM112.6 27.3C114.5 31.8 116.3 36.1 118.1 40.5C120.1 37.4 122 34.4 123.9 31.3C123.2 30.9 122.7 30.4 122.1 30.2C120 29.5 117.8 28.9 115.6 28.2C114.7 27.9 113.7 27.6 112.6 27.3ZM138.7 113.3C139.5 118.1 140.3 122.9 141.1 127.8C141.3 127.5 141.4 127.3 141.5 127.2C143.4 124.5 145.3 121.8 147.2 119.2C147.7 118.5 147.9 117.7 148.1 116.8C144.9 115.6 141.8 114.4 138.7 113.3ZM30.6 127.7C30.7 127.6 30.7 127.6 30.8 127.5C31.6 122.8 32.3 118 33.1 113.2C29.9 114.4 26.8 115.5 23.7 116.7C23.9 117.7 24.2 118.5 24.7 119.3C26.6 121.9 28.4 124.5 30.3 127.1C30.5 127.3 30.5 127.5 30.6 127.7ZM148.5 101.5C145.4 104.9 142.3 108.2 139.2 111.6C142.4 112.8 145.4 113.9 148.5 115.1C149.1 113.4 149.1 113.4 149 111.7C148.9 110.9 148.9 110 148.9 109.2C148.8 106.6 148.6 104.1 148.5 101.5ZM23.3 101.5C23.3 101.7 23.3 101.8 23.3 101.9C23.1 105.3 23 108.7 22.8 112.1C22.7 113.2 23 114.1 23.3 115C26.4 113.8 29.5 112.7 32.6 111.5C29.4 108.2 26.4 104.9 23.3 101.5ZM131.9 43.3C130.1 40.2 128.5 37.2 126.8 34.2C126.3 33.3 125.6 33 125 32.4C123.1 35.4 121.2 38.4 119.3 41.4C123.5 42 127.7 42.6 131.9 43.3ZM52.5 41.4C50.6 38.3 48.7 35.4 46.7 32.3C46.1 32.9 45.5 33.3 45.1 34C43.4 36.9 41.8 39.9 40.1 42.8C40 42.9 40 43 39.9 43.3C44.1 42.6 48.3 42 52.5 41.4ZM97.7 163.5C93.9 161.1 90.3 158.9 86.6 156.5C86.6 160.2 86.6 163.9 86.6 167.5C87.3 167.5 87.9 167.7 88.5 167.5C91.6 166.3 94.6 164.9 97.7 163.5ZM85.2 156.6C81.5 158.9 77.8 161.2 74.1 163.6C74.3 163.7 74.4 163.8 74.6 163.8C77.4 165 80.1 166.2 82.9 167.5C83.7 167.9 84.5 167.7 85.3 167.7C85.2 164 85.2 160.3 85.2 156.6ZM154.7 92.6C152.8 89.9 151 87.3 149.1 84.6C149.3 89.1 149.5 93.5 149.8 98C151.4 96.1 153 94.4 154.7 92.6ZM22.7 84.8C20.8 87.3 19 89.9 17.1 92.6C18.8 94.4 20.4 96.2 22.1 98C22.3 93.5 22.5 89.1 22.7 84.8ZM30.6 56.6C32.7 52.9 34.7 49.2 36.8 45.5C34.5 45.8 32.3 46.2 30.1 46.5C30.3 49.9 30.5 53.1 30.6 56.6ZM141.6 46.5C139.4 46.2 137.2 45.8 134.9 45.5C137 49.2 139 52.9 141.1 56.6C141.3 53.1 141.4 49.9 141.6 46.5ZM38.6 141.5V141.4C36.2 138.1 33.9 134.8 31.5 131.4C31.1 134 30.7 136.4 30.3 139C33.1 139.8 35.8 140.6 38.6 141.5ZM133.1 141.4C133.1 141.4 133.1 141.5 133.2 141.5C136 140.6 138.7 139.8 141.5 138.9C141.1 136.4 140.7 133.9 140.3 131.3C137.8 134.8 135.5 138.1 133.1 141.4ZM101.4 163.9C103.3 165.1 105.1 166.2 106.9 167.4C107.2 167.6 107.3 167.5 107.5 167.2C108.9 164.7 110.3 162.2 111.7 159.7C111.8 159.6 111.8 159.4 111.9 159.2C108.4 160.7 104.9 162.3 101.4 163.9ZM70.4 163.9C66.8 162.3 63.3 160.8 59.9 159.2C61.4 162 62.9 164.6 64.4 167.3C64.5 167.4 64.6 167.4 64.7 167.4C66.6 166.2 68.4 165.1 70.4 163.9ZM72.7 21.3C72.6 21.2 72.5 21.2 72.5 21.1C70 20 67.5 18.9 65 17.8C64.8 17.7 64.7 17.8 64.6 18.1C64.1 19.4 63.6 20.6 63 21.9C62.6 22.8 62.3 23.6 61.9 24.6C65.4 23.5 69 22.4 72.7 21.3ZM99.1 21.3C102.8 22.4 106.4 23.5 110 24.6C109.9 24.3 109.8 24.2 109.8 24C109 22.1 108.2 20.2 107.4 18.2C107.2 17.9 107 17.8 106.7 17.9C104.3 19 101.9 20 99.5 21C99.4 21.1 99.3 21.2 99.1 21.3ZM42.4 101.1C43.3 102.7 44.2 104.3 45.1 105.9C46.5 101 47.8 96.3 49.2 91.5C49.2 91.5 49.1 91.5 49.1 91.4C46.9 94.6 44.7 97.8 42.4 101.1ZM129.3 101.1C127.1 97.9 124.8 94.7 122.6 91.5C122.6 91.5 122.5 91.5 122.5 91.6C123.9 96.4 125.2 101.1 126.6 106C127.6 104.2 128.4 102.7 129.3 101.1ZM59.6 54.7C59.5 54.7 59.5 54.7 59.4 54.7C58 55.3 56.6 56 55.2 56.6C54.9 56.7 55 56.9 55 57.2C55.1 60 55.2 62.7 55.3 65.5C55.3 66.7 55.4 67.8 55.4 69H55.5C56.9 64.3 58.3 59.5 59.6 54.7ZM116.2 69C116.3 68.8 116.3 68.6 116.3 68.4C116.4 64.6 116.6 60.9 116.7 57.1C116.7 56.8 116.6 56.7 116.4 56.6C115.1 56 113.7 55.4 112.4 54.8C112.3 54.8 112.2 54.8 112.1 54.7C113.5 59.5 114.8 64.2 116.2 69ZM73.5 132.3C73.6 132.5 73.6 132.5 73.6 132.5C75.4 135.7 77.3 138.9 79.1 142.1C79.3 142.4 79.4 142.4 79.7 142.3C80.7 142 81.7 141.7 82.7 141.4C83.1 141.3 83.6 141.1 84.1 141C80.5 138.1 77.1 135.2 73.5 132.3ZM98.2 132.4C94.7 135.2 91.2 138.1 87.8 141C87.9 141.1 87.9 141.1 87.9 141.1C89.3 141.5 90.8 142 92.2 142.4C92.3 142.4 92.6 142.2 92.7 142.1C94.4 139.3 96 136.4 97.7 133.5C97.8 133.1 98 132.8 98.2 132.4ZM46.4 115C49.7 116.1 53.1 117.1 56.4 118.2V118.1C53 115.3 49.6 112.4 46.1 109.5C46.2 111.4 46.3 113.2 46.4 115ZM125.6 109.5C122.1 112.4 118.7 115.2 115.3 118.1V118.2C118.6 117.2 121.9 116.1 125.3 115C125.4 113.2 125.5 111.4 125.6 109.5ZM75.2 52.2C75 52.1 75 52.1 74.9 52C71.8 50.7 68.8 49.4 65.7 48.1C65.6 48 65.3 48.2 65.2 48.3C64.3 49.5 63.5 50.6 62.7 51.8C62.6 51.9 62.6 52 62.5 52.1C66.7 52.2 70.9 52.2 75.2 52.2ZM109.2 52.2C109.2 52.1 109.3 52.1 109.3 52C108.3 50.7 107.4 49.4 106.4 48.2C106.3 48.1 106.1 48.1 105.9 48.2C103.6 49.2 101.3 50.2 99 51.2C98.2 51.5 97.4 51.9 96.6 52.2V52.3C100.9 52.2 105 52.2 109.2 52.2ZM117.2 44.8C115.4 47.4 113.8 50 112.1 52.7C113.7 53.4 115.2 54.1 116.8 54.8C116.9 51.4 117.1 48.1 117.2 44.8ZM54.7 44.8C54.6 44.8 54.6 44.8 54.7 44.8C54.7 48.2 54.9 51.5 55 54.9C56.6 54.2 58.1 53.5 59.7 52.8C58 50 56.3 47.4 54.7 44.8ZM86.6 152.6C88.3 149.7 89.9 147 91.5 144.1C89.8 143.6 88.2 143.1 86.6 142.6C86.6 145.9 86.6 149.2 86.6 152.6ZM85.2 152.5C85.2 149.1 85.2 145.9 85.2 142.6C83.6 143.1 82 143.6 80.3 144.1C81.9 146.9 83.5 149.7 85.2 152.5ZM64 47.4C61.2 46.2 58.6 45.1 55.9 43.9V44C57.5 46.6 59.2 49.2 60.8 51.7C61.9 50.2 62.9 48.8 64 47.4ZM107.7 47.4C108.8 48.9 109.9 50.3 111 51.7C112.6 49.2 114.2 46.6 115.9 44V43.9C113.2 45 110.5 46.2 107.7 47.4ZM130.2 102.4C129.3 104 128.4 105.6 127.5 107.2C130.2 108.2 132.9 109.2 135.5 110.2V110.1C133.8 107.5 132.1 105 130.2 102.4ZM44.2 107.2C43.3 105.5 42.4 104 41.5 102.4C39.7 105 37.9 107.6 36.1 110.1V110.2C38.9 109.2 41.5 108.2 44.2 107.2ZM134.9 112C132.3 110.9 129.7 110 127 109C126.9 110.9 126.8 112.7 126.7 114.6C129.5 113.7 132.2 112.8 134.9 112ZM45 114.6C44.9 112.7 44.8 110.9 44.7 109C42 110 39.4 111 36.8 111.9V112C39.5 112.8 42.2 113.7 45 114.6ZM154 95.6C152.6 97 151.2 98.4 149.9 99.9C149.8 100 149.8 100.3 149.8 100.5C149.9 102.6 150 104.7 150.1 106.7C150.1 107.3 150.2 108 150.2 108.6H150.3C151.6 104.4 152.8 100 154 95.6ZM21.5 108.9C21.5 108.7 21.6 108.6 21.6 108.5C21.7 105.8 21.9 103.1 22 100.4C22 100.2 21.9 99.9 21.8 99.8C20.6 98.4 19.3 97.1 18 95.7C18 95.7 17.9 95.6 17.8 95.5C19 100 20.2 104.4 21.5 108.9ZM146.3 123.1C146.2 123.1 146.2 123.1 146.3 123.1C144.9 124.8 143.7 126.7 142.4 128.4C141.7 129.4 141.4 130.2 141.7 131.6C142 133.1 142.2 134.7 142.5 136.4C143.8 131.9 145 127.5 146.3 123.1ZM29.3 136.4C29.4 136.1 29.4 136 29.4 135.8C29.7 133.9 30 132.1 30.3 130.2C30.4 129.8 30.3 129.6 30.1 129.4C28.7 127.4 27.3 125.4 25.9 123.4C25.8 123.3 25.7 123.2 25.6 123.1C25.6 123.1 25.5 123.1 25.5 123.2C26.8 127.6 28 131.9 29.3 136.4ZM62.4 19.5C62.4 19.4 62.4 19.4 62.4 19.5C59.2 22 56.1 24.6 53 27.2C55.3 26.6 57.5 25.9 59.8 25.2C60 25.2 60.1 24.9 60.2 24.7C60.8 23.3 61.4 21.8 62 20.4C62.2 20.1 62.3 19.8 62.4 19.5ZM109.4 19.4C109.4 19.6 109.5 19.8 109.5 19.9C110.2 21.5 110.8 23.1 111.5 24.7C111.6 25.1 111.8 25.2 112.1 25.3C113.3 25.6 114.4 26 115.6 26.4C116.6 26.7 117.7 27 118.7 27.3V27.2C115.7 24.6 112.5 22 109.4 19.4ZM139.2 44.3C136.1 41.6 133 39 129.9 36.4C131.1 38.7 132.4 41 133.6 43.2C133.7 43.3 133.8 43.4 134 43.4C135.8 43.8 137.5 44.1 139.2 44.3ZM41.9 36.6C38.7 39.1 35.6 41.7 32.5 44.3C34.3 44.1 36 43.9 37.7 43.6C37.8 43.6 38 43.5 38.1 43.4C39.4 41.1 40.6 38.8 41.9 36.6ZM25.2 70.1C26.1 71.7 26.9 73.2 27.7 74.6C28.4 73.7 29.1 72.8 29.8 71.9C29.8 71.8 29.9 71.7 29.9 71.6C29.9 70.4 29.8 69.2 29.8 68C28.2 68.8 26.7 69.4 25.2 70.1ZM144.1 74.6C144.9 73.2 145.7 71.7 146.6 70.1C145 69.4 143.6 68.7 142 68C141.9 69.3 141.9 70.4 141.9 71.6C141.9 71.7 141.9 71.8 142 71.9C142.6 72.9 143.3 73.7 144.1 74.6ZM89 23.8C87.9 22.4 86.9 21 85.9 19.8C84.9 21.1 83.9 22.4 82.8 23.8C83.8 24.3 84.8 24.7 85.8 25.1C85.9 25.1 86 25.1 86.1 25.1C87 24.7 87.9 24.3 89 23.8ZM123.7 146.3C122.6 146.6 121.6 146.9 120.6 147.3C120.5 147.3 120.4 147.4 120.3 147.5C119.8 148.4 119.3 149.3 118.7 150.3C120.3 150.8 121.9 151.2 123.4 151.7C123.5 149.9 123.6 148.1 123.7 146.3ZM53.1 150.3C52.5 149.3 52 148.4 51.5 147.5C51.4 147.4 51.3 147.3 51.3 147.3C50.3 147 49.2 146.6 48.1 146.3C48.2 148.1 48.3 149.9 48.4 151.7C49.9 151.2 51.5 150.8 53.1 150.3ZM67.6 167.6V167.7C71.3 167.7 75 167.7 78.8 167.7C78.7 167.6 78.7 167.6 78.7 167.6C76.6 166.7 74.5 165.7 72.4 164.8C72.3 164.8 72.2 164.8 72.1 164.8C70.6 165.7 69.1 166.6 67.6 167.6ZM104.2 167.7V167.6C102.7 166.7 101.2 165.7 99.7 164.8C99.6 164.7 99.4 164.8 99.2 164.8C97.7 165.5 96.2 166.1 94.7 166.8C94.1 167.1 93.6 167.3 93 167.6V167.7C96.7 167.7 100.5 167.7 104.2 167.7ZM18.5 87.9C18.6 87.8 18.6 87.8 18.7 87.8C20 85.9 21.4 84 22.7 82.1C22.8 81.9 22.9 81.6 22.9 81.4C23 80.2 23 79 23.1 77.8C23.1 76.8 23.2 75.9 23.2 74.9H23.1C21.6 79.2 20.1 83.5 18.5 87.9ZM153.1 87.9C153.2 87.8 153.2 87.8 153.1 87.9C151.7 83.5 150.2 79.2 148.6 74.8C148.6 77.1 148.7 79.4 148.8 81.6C148.8 81.8 148.9 82 148.9 82.1C150.4 84 151.8 85.9 153.1 87.9ZM142.8 51.2C142.6 53.7 142.5 56.1 142.4 58.5C142.4 58.7 142.5 59 142.6 59.1C143.6 60.9 144.6 62.7 145.6 64.5C145.7 64.6 145.7 64.7 145.8 64.8C145.8 64.8 145.8 64.8 145.9 64.7C144.8 60.2 143.8 55.7 142.8 51.2ZM29 51.2C27.9 55.7 26.9 60.2 25.9 64.8C26 64.8 26 64.8 26 64.7C27.1 62.8 28.2 60.9 29.2 59C29.3 58.9 29.3 58.7 29.3 58.5C29.3 56.1 29.1 53.6 29 51.2ZM119.8 155.7C119.7 155.7 119.6 155.7 119.6 155.7C117.9 156.5 116.1 157.2 114.4 158C114.3 158.1 114.1 158.2 114 158.4C113 160.2 112 162 110.9 163.8C110.8 163.9 110.8 164.1 110.7 164.2C110.7 164.2 110.7 164.2 110.8 164.3C113.8 161.5 116.8 158.6 119.8 155.7ZM61 164.4C61 164.3 61 164.3 61 164.4C60.3 163.1 59.6 161.9 58.9 160.5C58.1 158.8 57 157.6 55.5 157.3C55.3 157.3 55.1 157.1 54.8 157C53.9 156.6 52.9 156.2 52 155.8V155.9C55 158.7 58 161.5 61 164.4ZM137.4 142.2C137.4 142.1 137.3 142.1 137.4 142.2C137.3 142.1 137.3 142.1 137.3 142.1C135.4 142.7 133.6 143.3 131.7 143.9C131.5 144 131.3 144.1 131.2 144.3C130.2 145.6 129.3 147 128.3 148.3C128.1 148.5 127.9 148.7 127.7 149C127.7 149.1 127.8 149.1 127.8 149.2C131 146.8 134.2 144.5 137.4 142.2ZM44 149.1C44 149.1 44 149 44.1 149C42.9 147.3 41.7 145.7 40.6 144C40.5 143.9 40.3 143.8 40.2 143.8C38.9 143.4 37.7 143 36.4 142.6C35.8 142.4 35.1 142.2 34.5 142V142.1C37.6 144.5 40.8 146.8 44 149.1ZM102.1 18.1V18C98.4 18.3 94.8 18.5 91.1 18.8C91.2 18.9 91.3 19 91.4 19C92.6 19.4 93.8 19.7 95 20.1C96 20.5 96.9 20.4 97.8 19.9C99.3 19.3 100.7 18.7 102.1 18.1ZM80.7 18.9C77 18.5 73.4 18.3 69.6 18C69.8 18.1 69.8 18.1 69.8 18.2C71.5 19 73.3 19.7 75 20.5C75.1 20.6 75.3 20.6 75.5 20.5C76.5 20.2 77.5 19.9 78.5 19.6C79.3 19.3 80 19.1 80.7 18.9ZM144.8 76.2C145.7 77.3 146.6 78.4 147.4 79.4C147.3 77.2 147.2 74.8 147.1 72.4H147C146.3 73.6 145.6 74.8 144.8 76.2ZM24.8 72.3H24.7C24.6 74.7 24.5 77.1 24.4 79.3C25.2 78.3 26.1 77.2 27 76.1C26.2 74.8 25.5 73.6 24.8 72.3ZM142.3 61.6C142.2 63.2 142.2 64.6 142.1 66C142.1 66.1 142.2 66.2 142.3 66.3C143.4 66.8 144.6 67.3 145.8 67.9C144.6 65.7 143.5 63.8 142.3 61.6ZM29.5 61.6C28.3 63.7 27.2 65.7 26 67.8C27.3 67.2 28.4 66.7 29.5 66.2C29.6 66.2 29.7 66 29.7 65.9C29.6 64.6 29.6 63.2 29.5 61.6ZM124.9 150.4C126.3 148.5 127.6 146.6 128.9 144.8C127.7 145.1 126.5 145.4 125.4 145.8C125.3 145.8 125.2 146 125.2 146.1C125 147.4 125 148.8 124.9 150.4ZM46.9 149.9C46.8 148.8 46.8 147.4 46.7 146C46.7 145.9 46.6 145.8 46.5 145.8C45.3 145.4 44.2 145.1 43 144.7C43 144.7 43 144.8 42.9 144.8C44.2 146.5 45.6 148.2 46.9 149.9ZM121.3 153.1V153C120.2 152.7 119.1 152.3 117.9 152C117.8 152 117.7 152 117.6 152.1C116.9 153.2 116.3 154.3 115.7 155.5C115.7 155.5 115.7 155.6 115.8 155.6C117.6 154.7 119.5 153.9 121.3 153.1ZM93.8 21.7V21.6C91.9 21 90 20.4 88 19.9C88 20 87.9 20 87.9 20.1C88.7 21.1 89.4 22.1 90.2 23.1C90.3 23.2 90.4 23.2 90.5 23.2C91.7 22.7 92.7 22.2 93.8 21.7ZM56.1 155.6C55.7 154.8 55.3 154.2 55 153.6C54.7 153.1 54.4 152.3 54 152.1C53.6 151.9 53 152.3 52.5 152.4C51.8 152.6 51.1 152.8 50.5 153V153.1C52.3 153.9 54.1 154.7 56.1 155.6ZM77.9 21.6V21.7C79 22.2 80.1 22.7 81.1 23.1C81.2 23.1 81.3 23.1 81.4 23C82.2 22 82.9 21 83.7 20C83.7 20 83.6 19.9 83.6 19.8C81.8 20.4 79.9 21 77.9 21.6ZM141.2 79.6C141.9 78.5 142.6 77.4 143.2 76.2C142.7 75.5 142.2 74.9 141.6 74.2C141.5 76 141.3 77.8 141.2 79.6ZM30.5 79.7C30.4 77.8 30.3 76 30.1 74.3C29.6 74.9 29.1 75.6 28.5 76.2C29.2 77.4 29.9 78.5 30.5 79.7ZM47.9 140.5C47.9 141.7 47.9 142.9 48 144.1C48 144.2 48.1 144.3 48.1 144.4C48.8 144.6 49.4 144.8 50.2 145.1C49.4 143.5 48.6 142 47.9 140.5ZM124 140.6C123.1 142.1 122.4 143.5 121.6 145.1C122.4 144.9 123 144.7 123.6 144.5C123.7 144.5 123.8 144.3 123.8 144.2C123.9 143 123.9 141.8 124 140.6ZM31.2 70.1C32.2 68.7 33.2 67.5 34.2 66.2C33.2 66.5 32.2 66.9 31.3 67.4C31.2 67.4 31.1 67.7 31.1 67.8C31.1 68.5 31.2 69.2 31.2 70.1ZM140.5 70.1C140.5 69.3 140.6 68.6 140.6 67.9C140.6 67.6 140.5 67.4 140.3 67.4C139.5 67.1 138.8 66.7 138 66.4C137.9 66.3 137.7 66.3 137.5 66.2V66.3C138.5 67.5 139.5 68.7 140.5 70.1ZM83.9 26.2C83.2 25.9 82.6 25.6 81.9 25.4C81.8 25.4 81.7 25.4 81.7 25.5C81 26.4 80.4 27.2 79.7 28.1C79.7 28.2 79.8 28.2 79.8 28.3C81.1 27.5 82.4 26.9 83.9 26.2ZM92 28.2C92 28.1 92.1 28.1 92.1 28C91.4 27.2 90.8 26.3 90.2 25.5C90.1 25.4 90 25.3 89.9 25.4C89.3 25.6 88.7 25.9 88 26.2C89.3 26.9 90.6 27.5 92 28.2ZM118.5 147.8C117 148.2 115.6 148.5 114.3 148.9C115.3 149.3 116.2 149.6 117.2 149.8C117.3 149.8 117.5 149.7 117.5 149.6C117.8 149.1 118.1 148.5 118.5 147.8ZM53.3 147.8C53.7 148.5 54 149.1 54.4 149.7C54.5 149.8 54.6 149.8 54.7 149.8C55.7 149.5 56.6 149.2 57.6 149V148.9C56.2 148.5 54.8 148.2 53.3 147.8ZM117.8 79.9C117.6 79.3 117.5 78.8 117.4 78.3H117.3C117.3 78.9 117.3 79.4 117.3 80C117.4 80 117.6 79.9 117.8 79.9ZM54.5 80.1C54.5 79.5 54.5 78.9 54.5 78.4H54.4C54.3 78.9 54.1 79.4 54 80C54.2 79.9 54.4 80 54.5 80.1ZM53.5 81.5C53.3 82 53.2 82.5 53.1 83C53.1 83 53.1 83 53.2 83.1C53.5 82.7 53.8 82.2 54.1 81.8C53.9 81.7 53.7 81.6 53.5 81.5ZM117.7 81.7C118 82.2 118.3 82.6 118.6 83.1C118.6 83.1 118.6 83.1 118.7 83.1C118.6 82.6 118.4 82.1 118.3 81.6C118 81.6 117.9 81.6 117.7 81.7ZM67.7 125.2C67.5 124.7 67.3 124.2 67 123.7C66.9 123.9 66.8 124.1 66.7 124.3C67 124.7 67.3 125 67.7 125.2ZM104.8 123.8C104.5 124.3 104.3 124.7 104 125.2C104 125.2 104 125.3 104.1 125.3C104.5 125 104.8 124.7 105.2 124.4C105 124.1 104.9 124 104.8 123.8ZM65.8 123C65.4 122.9 65.1 122.8 64.7 122.7C65.3 123.5 65.5 123.5 65.8 123ZM107.1 122.6C106.7 122.7 106.3 122.8 106 122.9C106.3 123.5 106.4 123.5 107.1 122.6ZM86.6 54.6C86.9 54.5 87.2 54.4 87.6 54.2C86.7 54 86.6 54 86.6 54.6ZM85.2 54.6C85.2 54 85 53.9 84.3 54.2C84.6 54.3 84.9 54.5 85.2 54.6Z" fill="#FFA700"/>
<path d="M203.1 57.5H190.4V47.9H221.8C223.8 47.9 225.3 49.5 225.3 51.4V57.4H212.6V88.1H203V57.5H203.1Z" fill="black"/>
<path d="M269.3 68.1C269.3 79.2 260.3 88.2 249.2 88.2C238.1 88.2 229.1 79.2 229.1 68.1C229.1 57 238.1 48 249.2 48C260.3 48 269.3 57 269.3 68.1ZM259.7 68.1C259.7 62.3 255 57.6 249.2 57.6C243.4 57.6 238.7 62.3 238.7 68.1C238.7 73.9 243.4 78.6 249.2 78.6C255 78.6 259.7 73.9 259.7 68.1Z" fill="black"/>
<path d="M275.6 48H284.2C284.6 48 284.9 48.2 285.2 48.5L296.1 61.1L306.8 48.4C307.1 48.1 307.4 47.9 307.8 47.9H316.3V88.1H306.8V63L302.3 68.3L298.6 72.5C297.2 74.1 294.7 74.1 293.3 72.5L285.1 62.9V88H275.5V48H275.6Z" fill="black"/>
<path d="M341.5 48H347.6C349.6 48 351.1 49.6 351.1 51.5V63.3H366.7V48H372.8C374.7 48 376.3 49.6 376.3 51.5V88.2H366.7V72.9H351.1V88.2H341.5V48Z" fill="black"/>
<path d="M422.8 68.1C422.8 79.2 413.8 88.2 402.7 88.2C391.6 88.2 382.6 79.2 382.6 68.1C382.6 57 391.6 48 402.7 48C413.8 48 422.8 57 422.8 68.1ZM413.2 68.1C413.2 62.3 408.5 57.6 402.7 57.6C396.9 57.6 392.2 62.3 392.2 68.1C392.2 73.9 396.9 78.6 402.7 78.6C408.5 78.6 413.2 73.9 413.2 68.1Z" fill="black"/>
<path d="M429.1 71.2C429.1 69.3 430.7 67.7 432.6 67.7H444.1C447 67.7 449.3 65.3 449.2 62.4C449.1 59.6 446.7 57.5 444 57.5H429.1V47.9H443.9C451.9 47.9 458.8 54.4 458.7 62.5C458.7 68.3 455.3 73.3 450.3 75.6L462.8 88.2H449.5L438.6 77.3V88.2H429L429.1 71.2Z" fill="black"/>
<path d="M467.8 48H475.3C476.3 48 477.3 48.5 478 49.2L499.1 73.7V48H505.1C507.1 48 508.6 49.6 508.6 51.5V88.2H498.9L477.3 63.1V88.2H467.8V48Z" fill="black"/>
<path d="M198.2 137.8C198 137.7 197.8 137.7 197.6 137.6C197.4 137.5 197.2 137.4 197 137.4L196.6 137.2L195.8 136.8C195.7 136.7 195.5 136.6 195.4 136.5C195.1 136.3 194.9 136.1 194.7 136C194.2 135.6 193.7 135.2 193.3 134.8C191 132.5 189.6 129.3 189.6 125.7C189.6 122.2 191 119 193.3 116.6C193.7 116.2 194.2 115.8 194.7 115.4C194.9 115.2 195.2 115 195.4 114.9C195.9 114.5 196.5 114.3 197 114C197.2 113.9 197.4 113.8 197.6 113.7L198.2 113.5C199.5 113.1 200.9 112.8 202.3 112.8C203.7 112.8 205.1 113 206.4 113.5L207 113.7C207.2 113.8 207.4 113.9 207.6 114C208.2 114.3 208.7 114.5 209.2 114.9C209.5 115.1 209.7 115.2 210 115.4C210.5 115.8 211 116.2 211.4 116.6L207.1 120.9C206.8 120.6 206.5 120.3 206.1 120.1C206 120 205.9 120 205.8 119.9L205.6 119.8L205.3 119.6C205.1 119.5 204.9 119.4 204.8 119.4L204.5 119.3C204.4 119.3 204.4 119.2 204.3 119.2C204.2 119.2 204.2 119.2 204.2 119.1C204.1 119.1 204 119.1 204 119C203.5 118.9 202.9 118.8 202.3 118.8C201.7 118.8 201.1 118.9 200.6 119C200.5 119 200.4 119.1 200.3 119.1L200.2 119.2C200.1 119.2 200 119.2 200 119.3L199.7 119.4C199.5 119.5 199.3 119.5 199.2 119.6L199 119.7L198.9 119.8L198.8 119.9C198.7 119.9 198.6 120 198.6 120.1L198.3 120.3C198.2 120.4 198.1 120.5 198 120.5C196.6 121.7 195.7 123.5 195.7 125.6C195.7 127.6 196.6 129.4 198 130.7C198.1 130.8 198.2 130.9 198.3 131L198.4 131.1L198.7 131.3C198.9 131.5 199.2 131.6 199.4 131.7C199.6 131.8 199.7 131.9 199.9 132C200.2 132.1 200.4 132.2 200.7 132.3C201.2 132.4 201.8 132.5 202.4 132.5C203 132.5 203.6 132.4 204.1 132.3C204.4 132.2 204.6 132.1 204.9 132C205.1 131.9 205.3 131.8 205.4 131.7C205.7 131.6 205.9 131.4 206.1 131.3L206.6 130.9L207.1 130.5V125.8H210.9C212.1 125.8 213.1 126.8 213.1 128V130.4C213.1 132 212.5 133.6 211.3 134.8C210.9 135.2 210.4 135.6 209.9 136L209.1 136.5L208.7 136.7C208.4 136.9 208.2 137 207.9 137.1C207.8 137.2 207.6 137.3 207.5 137.3L207 137.5H206.9C206.7 137.6 206.5 137.7 206.3 137.7C205 138.1 203.6 138.4 202.2 138.4C200.8 138.4 199.5 138.2 198.2 137.8Z" fill="black"/>
<path d="M226 114.3C226.4 113.5 227.2 112.9 228.1 112.9C229 112.9 229.8 113.4 230.1 114.2L241.4 138.4H241.3H235L232.5 133.1H223.4L220.9 138.4H214.8L226 114.3ZM230 127.4L228.1 123.3L226.2 127.4H230Z" fill="black"/>
<path d="M244.7 112.9H250.2C250.4 112.9 250.6 113 250.8 113.2L257.7 121.2L264.6 113.2C264.8 113 265 112.9 265.2 112.9H270.6V138.5H264.5V122.5L261.6 125.9L259.3 128.6C258.4 129.6 256.8 129.6 255.9 128.6L250.7 122.5V138.5H244.6V112.9H244.7Z" fill="black"/>
<path d="M275.4 112.9H279.3C280.5 112.9 281.5 113.9 281.5 115.1V138.4H275.4V112.9Z" fill="black"/>
<path d="M286.3 112.9H291.1C291.7 112.9 292.4 113.2 292.8 113.7L306.2 129.3V112.9H310C311.2 112.9 312.2 113.9 312.2 115.1V138.4H306.1L292.3 122.4V138.4H286.2V112.9H286.3Z" fill="black"/>
<path d="M325 137.8C324.8 137.7 324.6 137.7 324.4 137.6C324.2 137.5 324 137.4 323.8 137.4L323.4 137.2L322.6 136.8C322.5 136.7 322.3 136.6 322.2 136.5C321.9 136.3 321.7 136.1 321.5 136C321 135.6 320.5 135.2 320.1 134.8C317.8 132.5 316.4 129.3 316.4 125.7C316.4 122.2 317.8 119 320.1 116.6C320.5 116.2 321 115.8 321.5 115.4C321.7 115.2 322 115 322.2 114.9C322.7 114.5 323.3 114.3 323.8 114C324 113.9 324.2 113.8 324.4 113.7L325 113.5C326.3 113.1 327.7 112.8 329.1 112.8C330.5 112.8 331.9 113 333.2 113.5L333.8 113.7C334 113.8 334.2 113.9 334.4 114C335 114.3 335.5 114.5 336 114.9C336.3 115.1 336.5 115.2 336.8 115.4C337.3 115.8 337.8 116.2 338.2 116.6L333.9 120.9C333.6 120.6 333.3 120.3 332.9 120.1C332.8 120 332.7 120 332.6 119.9L332.4 119.8L332.1 119.6C331.9 119.5 331.7 119.4 331.6 119.4L331.3 119.3C331.2 119.3 331.2 119.2 331.1 119.2C331 119.2 331 119.2 331 119.1C330.9 119.1 330.8 119.1 330.8 119C330.3 118.9 329.7 118.8 329.1 118.8C328.5 118.8 327.9 118.9 327.4 119C327.3 119 327.2 119.1 327.1 119.1L327 119.2C326.9 119.2 326.8 119.2 326.8 119.3L326.5 119.4C326.3 119.5 326.1 119.5 326 119.6L325.8 119.7L325.7 119.8L325.5 119.9C325.4 119.9 325.3 120 325.3 120.1L325 120.3C324.9 120.4 324.8 120.5 324.7 120.5C323.3 121.7 322.4 123.5 322.4 125.6C322.4 127.6 323.3 129.4 324.7 130.7C324.8 130.8 324.9 130.9 325 131L325.1 131.1L325.4 131.3C325.6 131.5 325.9 131.6 326.1 131.7C326.3 131.8 326.4 131.9 326.6 132C326.9 132.1 327.1 132.2 327.4 132.3C327.9 132.4 328.5 132.5 329.1 132.5C329.7 132.5 330.3 132.4 330.8 132.3C331.1 132.2 331.3 132.1 331.6 132C331.8 131.9 332 131.8 332.1 131.7C332.4 131.6 332.6 131.4 332.8 131.3L333.3 130.9L333.8 130.5V125.8H337.6C338.8 125.8 339.8 126.8 339.8 128V130.4C339.8 132 339.2 133.6 338 134.8C337.6 135.2 337.1 135.6 336.6 136L335.8 136.5L335.4 136.7C335.1 136.9 334.9 137 334.6 137.1C334.5 137.2 334.3 137.3 334.2 137.3L333.7 137.5H333.8C333.6 137.6 333.4 137.7 333.2 137.7C331.9 138.1 330.5 138.4 329.1 138.4C327.7 138.4 326.3 138.2 325 137.8Z" fill="black"/>
</svg>
